<svg xmlns="http://www.w3.org/2000/svg" id="Layer_1" data-name="Layer 1" viewBox="0 0 100 81"><path d="M22.78,72.9H19.11l-1.27-2.5h-10L6.68,72.9H3l9.89-20.08Zm-6.41-5.52L12.85,60,9.07,67.38Z" style="fill:#fff"></path><polygon points="33.12 72.9 23.92 72.9 23.92 53.65 27.34 53.65 27.34 69.82 33.12 69.82 33.12 72.9" style="fill:#fff"></polygon><polygon points="54.61 73 51.17 73 51.09 62.59 45.16 68.84 39.22 62.59 39.22 73 35.57 73 35.57 52.89 45.05 63.62 54.61 53 54.61 73" style="fill:#fff"></polygon><rect x="57.08" y="53.65" width="3.41" height="19.25" style="fill:#fff"></rect><path d="M70.92,59.56q-.84-2.7-4.69-2.61v8.24l0,7.71H62.84V53.65h3.93a8.62,8.62,0,0,1,5.5,1.54,7.31,7.31,0,0,1,2.39,5.62,6.24,6.24,0,0,1-1.77,4.38l-1.25,1.25,4.59,6.45H72.11l-5.36-7.71a4.6,4.6,0,0,0,4.06-2.81,3.62,3.62,0,0,0,.11-2.81" style="fill:#fff"></path><path d="M97,72.9H93.37L92.1,70.4h-10L81,72.9H77.23l9.9-20.08Zm-6.4-5.52L87.12,60l-3.78,7.38Z" style="fill:#fff"></path><polygon points="44.33 11.72 49.99 8 55.68 11.72 55.68 19.96 61.34 16.23 67.01 19.96 67.01 35.45 61.34 39.18 61.34 17.78 55.68 21.5 55.68 43.76 49.99 47.48 49.99 9.55 44.33 13.27 44.33 11.72" style="fill:#fff"></polygon><polygon points="38.66 16.23 44.33 19.96 44.33 35.45 38.66 39.18 38.66 17.78 32.99 21.5 32.99 19.96 38.66 16.23" style="fill:#fff"></polygon></svg>